<svg width="108" height="12" viewBox="0 0 108 12" fill="none" xmlns="http://www.w3.org/2000/svg">
<g clip-path="url(#clip0_9589_2875)">
<path fill-rule="evenodd" clip-rule="evenodd" d="M41.6592 0.00109863H23.1104V2.3027H41.6592V0.00109863ZM41.6592 4.7267H23.1104V7.02831H41.6592V4.7267ZM23.1104 9.45229H41.6592V11.7538H23.1104V9.45229Z" fill="#E1E1E6"/>
<path fill-rule="evenodd" clip-rule="evenodd" d="M67.2808 0.00109863H85.8297V2.3027H67.2808V0.00109863ZM77.5794 11.7538V3.96566L77.4779 4.01606L75.6325 4.93766V11.7538H77.5794Z" fill="#E1E1E6"/>
<path d="M1.94684 11.7635H0V9.69234C0.00107394 7.12435 0.864026 4.66179 2.39941 2.84527C3.9348 1.02875 6.01715 0.00671904 8.18932 0.00354004H19.5232V2.30514H8.18932C6.53473 2.30768 4.94848 3.0857 3.77831 4.46865C2.60814 5.8516 1.94953 7.72664 1.94684 9.68274V11.7635Z" fill="#E1E1E6"/>
<path fill-rule="evenodd" clip-rule="evenodd" d="M46.0756 0H44.1711V0.551031L44.1703 0.552714L44.17 1.14383C44.1697 1.55396 44.1694 1.9627 44.1703 2.16358V11.7635H46.1172V2.70868L47.7916 3.58147L62.7326 11.75V11.754H62.7398L62.7574 11.7635H64.6805V9.91055L64.6795 9.91015V5.81876L64.6761 5.82045V0.003575H62.7293V8.90349L61.4921 8.269L46.0756 0Z" fill="#E1E1E6"/>
<path d="M108.999 0H90V7.03152H107.16V9.45699H90V11.76H108.999V11.407H109V4.80295H108.999V4.7285H91.8397V2.30301H108.999V0Z" fill="#DC1637"/>
</g>
<defs>
<clipPath id="clip0_9589_2875">
<rect width="108" height="12" fill="white"/>
</clipPath>
</defs>
</svg>
